<svg width="27" height="18" viewBox="0 0 27 18" fill="none" xmlns="http://www.w3.org/2000/svg">
<path d="M0.375 16.2917C0.375 17.0971 1.02792 17.75 1.83333 17.75H25.1667C25.9721 17.75 26.625 17.0971 26.625 16.2917V16.2917C26.625 15.4863 25.9721 14.8333 25.1667 14.8333H1.83333C1.02792 14.8333 0.375 15.4863 0.375 16.2917V16.2917ZM0.375 9C0.375 9.80542 1.02792 10.4583 1.83333 10.4583H25.1667C25.9721 10.4583 26.625 9.80542 26.625 9V9C26.625 8.19459 25.9721 7.54167 25.1667 7.54167H1.83333C1.02792 7.54167 0.375 8.19459 0.375 9V9ZM1.83333 0.25C1.02792 0.25 0.375 0.902918 0.375 1.70833V1.70833C0.375 2.51375 1.02792 3.16667 1.83333 3.16667H25.1667C25.9721 3.16667 26.625 2.51375 26.625 1.70833V1.70833C26.625 0.902918 25.9721 0.25 25.1667 0.25H1.83333Z" fill="#0B457F"/>
</svg>
